<?xml version="1.0" encoding="UTF-8"?><svg id="Capa_1" xmlns="http://www.w3.org/2000/svg" viewBox="0 0 1039.56 1010.82"><defs><style>.cls-1,.cls-2{fill:#fff;}.cls-3,.cls-2{opacity:.5;}</style></defs><path class="cls-2" d="M731.73,627.43c7.29,6.18,21.1,5.45,31.08-.92,13.15-8.39,23.05-20.4,34.54-30.63,13.27-11.81,28.38-19.74,46.19-22.6,37.29-5.97,66.29,8.54,90.91,35.26,7.38,8.01,15.4,15.54,25.67,20.12,14.4,6.42,28.54,1.08,37.56-11.9,12.55-18.06,15.02-37.86,12.75-58.66-1.59-14.53-5.08-28.73-10.25-42.55-8.55-22.85-20.84-43.16-39.46-59.08-8.42-7.2-17.95-12.94-34.88-13.07-10.53-.45-21.28,8.97-31.83,18.55-11.36,10.31-23.48,18.14-39.86,16.25-12.69-1.47-21.6-9.27-30.53-17.18-11.23-9.95-22.78-19.33-39.17-17.34-12.47,1.51-22.18,8.42-31.05,16.82-16.24,15.37-27.14,34.07-34.94,54.84-6.62,17.63-10.13,35.76-10.97,54.57-1.03,23.14,6.48,42.47,24.23,57.51Zm163.28-101.7q0-12.05,12.1-12.05,11.68,0,11.68-11.64,0-12.1,12.06-12.1,11.78,0,11.78,11.8t12,11.95q11.68,0,11.68,11.74c0,12.32-.06,13.06-12.36,12.08-9.56-.76-12.36,1.89-11.56,11.53,1,12.1,.24,12.16-12,12.16q-11.61,0-11.61-11.66,0-11.79-11.77-11.79-12,0-12-12.01Zm-92.44-24.29c-.11,9.27-6.53,15.09-16.36,14.84-7.19-.19-13.03-6.88-12.83-14.71,.22-8.6,6.62-14.94,14.9-14.72,7.72,.2,14.39,7.01,14.3,14.6Zm9.19,38.79c-8.37-.03-14.54-6.2-14.55-14.56,0-8.45,6.63-15.4,14.68-15.37,7.46,.03,14.18,7.19,14.19,15.12,0,8.66-5.97,14.83-14.32,14.81Zm-38.35,8.94c0-7.74,6.61-14.8,13.86-14.83,8.21-.02,16.03,7.52,15.75,15.18-.28,7.66-7.01,14.24-14.56,14.25-9.43,0-15.05-5.44-15.05-14.6Zm-23.76-23.28c0-8.48,6.66-15.6,14.6-15.58,7.73,.01,14.09,6.83,14.09,15.1,0,8.89-5.59,14.67-14.2,14.67-8.57,0-14.49-5.8-14.49-14.19Z"/><g class="cls-3"><path class="cls-1" d="M354.13,949.05c-.84-18.81-4.35-36.94-10.97-54.57-7.8-20.77-18.7-39.47-34.94-54.84-8.87-8.4-18.58-15.31-31.05-16.82-16.39-1.99-27.94,7.39-39.17,17.34-8.93,7.91-17.84,15.71-30.53,17.18-16.38,1.89-28.5-5.94-39.86-16.25-10.55-9.57-21.3-19-31.83-18.55-16.93,.13-26.46,5.87-34.88,13.07-18.62,15.92-30.91,36.23-39.46,59.08-5.17,13.81-8.67,28.02-10.25,42.55-2.27,20.79,.2,40.59,12.75,58.66,9.02,12.98,23.16,18.31,37.56,11.9,10.27-4.58,18.29-12.11,25.67-20.12,24.61-26.72,53.62-41.23,90.91-35.26,17.81,2.85,32.92,10.79,46.19,22.6,11.5,10.23,21.39,22.24,34.54,30.63,9.98,6.37,23.8,7.1,31.08,.92,17.75-15.04,25.26-34.37,24.23-57.51Zm-199.51-32.18q-11.77,0-11.77,11.79t-11.61,11.66c-12.24,0-13-.06-12-12.16,.8-9.64-2-12.29-11.56-11.53-12.3,.98-12.36,.24-12.36-12.08s0-11.74,11.68-11.74,12,0,12-11.95,0-11.8,11.78-11.8,12.06,0,12.06,12.1,0,11.64,11.68,11.64,12.1,0,12.1,12.05,0,12.01-12,12.01Zm118.74-50.91c8.27-.21,14.68,6.12,14.9,14.72,.2,7.83-5.64,14.52-12.83,14.71-9.83,.26-16.24-5.56-16.36-14.84-.09-7.59,6.57-14.4,14.3-14.6Zm-37.8,38.59c0-7.93,6.72-15.09,14.19-15.12,8.05-.03,14.69,6.91,14.68,15.37,0,8.36-6.18,14.53-14.55,14.56-8.35,.03-14.32-6.15-14.32-14.81Zm37.62,38.35c-7.55,0-14.28-6.59-14.56-14.25-.28-7.67,7.54-15.21,15.75-15.18,7.26,.02,13.87,7.09,13.86,14.83,0,9.16-5.62,14.61-15.05,14.6Zm24.32-23.7c-8.61,0-14.2-5.78-14.2-14.67,0-8.27,6.36-15.08,14.09-15.1,7.94-.01,14.6,7.1,14.6,15.58,0,8.39-5.92,14.19-14.49,14.19Z"/><path class="cls-1" d="M76.53,647.54c4.72-12.35,8.03-67.57,12.51-80.02,5.68-15.78,18.06-28.55,37.92-27.11,1.91,.14,3.87,.25,5.76,.16,1.31,.28,2.64,.49,3.96,.69,19.69,2.96,28.97,18.13,31.05,34.77,1.64,13.13,2.04,26.43,3.94,39.52,.32,2.24,.76,4.45,1.31,6.62,1.87,9.83,6.32,18.79,13.13,26.96,7.58,9.1,17.15,16.11,28.19,20.33,12.35,4.72,67.57,8.03,80.02,12.51,15.78,5.68,28.55,18.06,27.11,37.92-.14,1.91-.25,3.87-.16,5.76-.28,1.31-.49,2.64-.69,3.96-2.96,19.69-18.13,28.97-34.77,31.05-13.13,1.64-26.43,2.04-39.52,3.94-11.7,1.7-22.58,6.44-31.97,13.65-13.12,10.08-21.14,23.26-23.15,40.09-.81,6.81,3.44,13.56,10.99,14.75,5.27,.83,11.33-4.93,12.28-10.8,1.2-7.44,3.67-14.52,9.02-20.18,11.55-12.19,26.85-14.96,42.46-16.03,15.63-1.08,31.06-1.66,45.8-8.34,17.74-8.04,33.47-31.04,33.52-51.03,0-.16,0-.31-.01-.46,3.28-19.26-6.85-43.87-21.88-55.23-12.9-9.74-17.28-13.75-46-15.14-.05,0-.09-.02-.14-.02-40.13-4.25-60.47-10.68-71.21-20.84-7.3-8.52-10.4-18.69-11.87-29.37,.12-1.92-.11-3.88-.65-5.68-.12-1.34-.24-2.69-.33-4.04-1.08-15.63-1.66-31.06-8.34-45.8-8.04-17.74-31.04-33.47-51.03-33.52-.16,0-.31,0-.46,.01-19.26-3.28-43.87,6.85-55.23,21.88-9.74,12.9-13.75,17.28-15.14,46,0,.05-.02,.09-.02,.14-5.17,48.83-13.56,68.36-27.98,76.95-6.7,3.99-14.14,4.84-21.67,4.38-5.93-.36-12.89,4.29-13.23,9.61-.5,7.62,5.16,13.26,11.98,13.96,16.86,1.73,31.48-3.2,44.19-13.8,9.1-7.58,16.11-17.15,20.33-28.19Z"/></g><path class="cls-2" d="M1038.94,106.93c0-.15,.01-.31,.01-.46-.06-19.99-15.79-42.99-33.52-51.03-14.74-6.68-30.17-7.26-45.8-8.34-15.61-1.08-30.91-3.84-42.46-16.03-5.36-5.66-7.82-12.74-9.02-20.18-.95-5.87-7.01-11.63-12.28-10.8-7.55,1.19-11.8,7.94-10.99,14.75,2.01,16.83,10.03,30.01,23.15,40.09,9.39,7.21,20.27,11.96,31.97,13.65,13.09,1.9,26.39,2.3,39.52,3.94,16.65,2.08,31.82,11.35,34.77,31.05,.2,1.32,.41,2.65,.69,3.96-.09,1.89,.02,3.85,.16,5.76,1.44,19.86-11.33,32.24-27.11,37.92-12.45,4.48-67.67,7.79-80.02,12.51-11.04,4.22-20.62,11.24-28.19,20.33-9.98,11.98-14.93,25.65-14.02,41.28-.05,.59-.08,1.17-.04,1.74,.46,7.53-.39,14.98-4.38,21.67-8.59,14.42-28.13,22.81-76.95,27.98-.05,0-.09,.02-.14,.02-28.72,1.39-33.1,5.4-46,15.14-15.04,11.36-25.17,35.96-21.88,55.23,0,.15-.01,.31-.01,.46,.06,19.99,15.79,42.99,33.52,51.03,14.74,6.68,30.17,7.26,45.8,8.34,15.61,1.08,30.91,3.84,42.46,16.03,5.36,5.66,7.82,12.74,9.02,20.18,.95,5.87,7.01,11.63,12.28,10.8,7.55-1.19,11.8-7.94,10.99-14.75-2.01-16.83-10.03-30.01-23.15-40.09-9.39-7.21-20.27-11.96-31.97-13.65-13.09-1.9-26.39-2.3-39.52-3.94-16.65-2.08-31.82-11.35-34.77-31.05-.2-1.32-.41-2.65-.69-3.96,.09-1.89-.02-3.85-.16-5.76-1.44-19.86,11.33-32.24,27.11-37.92,12.45-4.48,67.67-7.79,80.02-12.51,11.04-4.22,20.62-11.24,28.19-20.33,9.98-11.98,14.93-25.65,14.02-41.28,.05-.59,.08-1.17,.04-1.74-.46-7.53,.39-14.98,4.38-21.67,8.59-14.42,28.13-22.81,76.95-27.98,.05,0,.09-.02,.14-.02,28.72-1.39,33.1-5.4,46-15.14,15.04-11.36,25.17-35.96,21.88-55.23Z"/></svg>