<?xml version="1.0" encoding="UTF-8"?><svg id="Capa_1" xmlns="http://www.w3.org/2000/svg" viewBox="0 0 912.52 890.48"><defs><style>.cls-1{fill:#fff;}</style></defs><path class="cls-1" d="M256.37,324.89c31.65-1.36,63.93,26.96,95.62,55.71,34.12,30.96,70.53,54.49,119.73,48.81,38.12-4.4,64.88-27.85,91.71-51.61,33.73-29.87,68.42-58.06,117.66-52.08,37.45,4.55,66.63,25.31,93.27,50.53,48.77,46.18,81.52,102.35,104.95,164.74,19.88,52.95,30.43,107.42,32.94,163.92,3.09,69.5-19.47,127.57-72.79,172.75-21.89,18.55-63.38,16.37-93.37-2.77-39.51-25.21-69.24-61.28-103.77-92.02-39.86-35.47-85.24-59.31-138.74-67.87-112-17.93-199.14,25.66-273.08,105.91-22.17,24.06-46.26,46.69-77.11,60.43-43.25,19.27-85.73,3.26-112.83-35.73C2.86,791.37-4.56,731.89,2.27,669.43c4.77-43.63,15.27-86.31,30.81-127.81,25.69-68.63,62.59-129.64,118.53-177.47,25.28-21.62,53.91-38.87,104.77-39.26Zm56.55,283.36q36.05,0,36.05-36.09t-36.33-36.18q-35.08,0-35.08-34.98,0-36.36-36.24-36.36-35.4,0-35.4,35.44,0,35.89-36.05,35.89-35.09,0-35.09,35.27c0,37,.18,39.23,37.14,36.29,28.7-2.28,37.13,5.68,34.72,34.63-3.02,36.35-.73,36.54,36.04,36.54q34.87,0,34.87-35.03,0-35.42,35.36-35.42Zm243.15-37c0,26.01,17.93,44.56,43,44.48,25.15-.08,43.69-18.62,43.71-43.73,.02-25.4-19.91-46.25-44.1-46.16-22.42,.09-42.6,21.6-42.61,45.41Zm229.56,1.4c0-25.49-20.01-46.85-43.85-46.81-23.21,.04-42.33,20.52-42.33,45.36,0,26.7,16.81,44.06,42.66,44.06,25.73,0,43.52-17.41,43.52-42.61Zm-71.36,69.93c0-23.24-19.84-44.47-41.64-44.53-24.66-.07-48.16,22.58-47.31,45.61,.85,23.01,21.06,42.78,43.75,42.79,28.32,.02,45.19-16.35,45.21-43.86Zm.08-143.02c-.65-25.84-19.9-44.87-44.74-44.23-23.19,.6-43.22,21.06-42.94,43.86,.34,27.85,19.62,45.34,49.14,44.56,21.61-.57,39.14-20.66,38.55-44.19Z"/><path class="cls-1" d="M885.54,37.02c-.17,60.05-47.42,129.13-100.7,153.28-44.27,20.06-90.64,21.82-137.58,25.06-46.88,3.24-92.86,11.54-127.55,48.17-16.1,16.99-23.49,38.27-27.11,60.63-2.85,17.63-21.07,34.94-36.89,32.45-22.67-3.57-35.45-23.86-33.01-44.3,6.04-50.54,30.13-90.14,69.55-120.42,28.21-21.67,60.89-35.92,96.03-41.01,39.32-5.7,79.27-6.9,118.72-11.83,50-6.25,95.58-34.1,104.46-93.26,3.1-20.66,7.52-42.82,34.77-45.6,20.75-2.12,39.36,15.88,39.3,36.85Z"/></svg>